<?xml version="1.0" encoding="UTF-8" standalone="no"?>
<!DOCTYPE svg PUBLIC "-//W3C//DTD SVG 1.1//EN" "http://www.w3.org/Graphics/SVG/1.1/DTD/svg11.dtd">
<svg version="1.1" xmlns="http://www.w3.org/2000/svg" xmlns:xlink="http://www.w3.org/1999/xlink" preserveAspectRatio="xMidYMid meet" viewBox="0 0 600 300"><defs><path d="M141.14 33.09L143.61 33.25L145.98 33.43L148.27 33.64L150.47 33.86L152.58 34.1L154.6 34.35L156.53 34.63L158.37 34.92L160.12 35.24L161.78 35.57L163.36 35.92L164.84 36.28L166.23 36.67L167.54 37.08L168.75 37.5L170.52 38.55L172.23 40.32L173.9 42.71L175.52 45.63L177.09 48.98L178.61 52.68L180.09 56.62L181.51 60.72L182.89 64.87L184.22 69L185.5 72.99L186.73 76.77L187.92 80.23L189.06 83.29L190.15 85.84L191.19 87.79L192.19 89.06L193.42 89.92L195.13 90.72L197.26 91.49L199.74 92.25L202.52 93.01L205.53 93.8L208.72 94.63L212.01 95.54L215.35 96.54L218.69 97.64L221.95 98.88L225.07 100.27L228 101.83L230.68 103.59L233.03 105.56L235.01 107.77L236.55 110.23L237.89 112.84L239.3 115.49L240.71 118.16L242.09 120.85L243.38 123.55L244.55 126.25L245.55 128.95L246.32 131.65L246.83 134.32L247.02 136.98L246.85 139.61L246.27 142.19L245.24 144.74L243.7 147.24L241.62 149.68L238.95 152.06L235.63 154.37L231.98 156.22L228.35 157.31L224.74 157.72L221.17 157.57L217.66 156.95L214.21 155.96L210.84 154.7L207.57 153.27L204.41 151.78L201.37 150.31L198.46 148.98L195.7 147.87L193.1 147.1L190.68 146.76L188.45 146.94L186.41 147.76L184.6 149.31L182.81 151.33L180.87 153.49L178.81 155.75L176.64 158.09L174.4 160.48L172.1 162.89L169.77 165.29L167.43 167.66L165.11 169.96L162.83 172.18L160.61 174.28L158.48 176.23L156.47 178L154.59 179.58L152.87 180.92L151.33 182.01L150 182.81L149.12 183.22L148.11 183.58L146.97 183.88L145.7 184.14L144.3 184.34L142.76 184.49L141.1 184.59L139.3 184.65L137.37 184.65L135.31 184.59L133.11 184.49L130.79 184.34L128.33 184.14L125.74 183.88L123.02 183.58L120.17 183.22L117.19 182.81L120.89 177.97L124.26 173.38L127.32 169.03L130.05 164.94L132.47 161.08L134.56 157.48L136.33 154.12L137.77 151.01L138.9 148.15L139.7 145.53L140.19 143.16L140.35 141.04L140.18 139.17L139.7 137.54L138.9 136.16L137.77 135.02L136.32 134.14L134.68 133.38L132.99 132.61L131.24 131.85L129.44 131.09L127.58 130.33L125.66 129.57L123.69 128.81L121.67 128.05L119.58 127.3L117.45 126.54L115.25 125.79L113 125.03L110.7 124.28L108.34 123.52L105.92 122.77L103.45 122.02L100.92 121.26L99.92 123.72L98.78 126.2L97.47 128.72L96.02 131.28L94.41 133.87L92.65 136.5L90.74 139.16L88.68 141.86L86.46 144.59L84.09 147.36L81.56 150.16L78.89 152.99L76.06 155.86L73.08 158.77L69.94 161.71L66.66 164.69L63.22 167.7L59.86 170.56L56.8 173.06L54.05 175.21L51.6 177.02L49.46 178.47L47.62 179.58L46.09 180.33L44.87 180.73L43.95 180.79L43.33 180.49L43.02 179.85L43.02 178.85L43.32 177.5L43.93 175.81L44.84 173.76L46.06 171.37L47.59 168.62L75.63 112.99L93.1 108.39L74.25 101.03L42.19 42.19L41.47 41.03L40.98 40.06L40.72 39.27L40.67 38.66L40.86 38.23L41.26 37.99L41.89 37.92L42.74 38.04L43.81 38.33L45.11 38.81L46.63 39.47L48.38 40.31L50.35 41.34L52.54 42.54L54.96 43.93L57.6 45.49L60.46 47.24L64.74 50.16L68.69 53.37L72.31 56.79L75.65 60.38L78.71 64.07L81.53 67.8L84.12 71.5L86.52 75.12L88.75 78.59L90.82 81.85L92.77 84.85L94.61 87.52L96.38 89.79L98.09 91.61L99.77 92.92L101.44 93.65L103.13 93.75L104.34 93.58L105.71 93.4L107.25 93.2L108.94 92.99L110.78 92.77L112.79 92.54L114.96 92.29L117.28 92.02L119.76 91.75L122.4 91.46L125.2 91.16L128.15 90.84L131.27 90.51L134.54 90.17L137.97 89.81L141.56 89.45L145.31 89.06L146.23 87.2L147.03 85.33L147.72 83.45L148.29 81.56L148.75 79.66L149.09 77.76L149.32 75.84L149.44 73.92L149.44 71.99L149.32 70.05L149.09 68.11L148.75 66.15L148.29 64.19L147.72 62.22L147.03 60.24L146.23 58.25L145.31 56.25L144.36 54.29L143.46 52.39L142.62 50.58L141.82 48.83L141.07 47.16L140.36 45.56L139.71 44.04L139.11 42.58L138.56 41.2L138.06 39.9L137.61 38.67L137.2 37.51L136.85 36.42L136.55 35.41L136.3 34.47L136.09 33.61L135.94 32.81L138.58 32.94L141.14 33.09ZM220.43 112.86L219.43 113.29L218.5 113.86L217.69 114.56L216.98 115.38L216.41 116.3L215.98 117.31L215.72 118.39L215.63 119.53L215.72 120.67L215.98 121.75L216.41 122.76L216.98 123.68L217.69 124.5L218.5 125.21L219.43 125.78L220.43 126.2L221.52 126.47L222.66 126.56L223.8 126.47L224.88 126.2L225.89 125.78L226.81 125.21L227.63 124.5L228.33 123.68L228.9 122.76L229.33 121.75L229.6 120.67L229.69 119.53L229.6 118.39L229.33 117.31L228.9 116.3L228.33 115.38L227.63 114.56L226.81 113.86L225.89 113.29L224.88 112.86L223.8 112.59L222.66 112.5L221.52 112.59L220.43 112.86Z" id="aFWGlXzl8"></path></defs><g visibility="inherit"><g visibility="inherit"><g visibility="inherit"><use xlink:href="#aFWGlXzl8" opacity="1" fill="#f13e36" fill-opacity="1"></use><g><use xlink:href="#aFWGlXzl8" opacity="1" fill-opacity="0" stroke="#000000" stroke-width="0" stroke-opacity="1"></use></g></g></g></g></svg>